<?xml version="1.0" encoding="utf-8"?>
<!-- Generator: Adobe Illustrator 26.0.3, SVG Export Plug-In . SVG Version: 6.00 Build 0)  -->
<svg version="1.1" xmlns="http://www.w3.org/2000/svg" xmlns:xlink="http://www.w3.org/1999/xlink" x="0px" y="0px" width="371.1px"
	 height="362.9px" viewBox="0 0 371.1 362.9" style="enable-background:new 0 0 371.1 362.9;" xml:space="preserve">
<style type="text/css">
	.st0{fill:#E8E8E8;}
	.st1{fill:#D74A42;}
	.st2{fill:#E2706D;}
	.st3{fill:url(#SVGID_1_);}
	.st4{fill:#FFFFFF;}
	.st5{opacity:0.7;fill:url(#SVGID_00000096060386532316140370000003297948605664205492_);}
	.st6{opacity:0.7;fill:url(#SVGID_00000139998689726935958310000010527074436513141173_);}
	.st7{opacity:0.7;fill:url(#SVGID_00000019640358051160316500000012617871154105050762_);}
	.st8{opacity:0.7;fill:url(#SVGID_00000085230244759137814000000009737209571712860059_);}
	.st9{opacity:0.64;}
	.st10{fill:url(#SVGID_00000107565553674612956910000004878071095199774866_);}
	.st11{fill:url(#SVGID_00000056392858410032237070000018424984016180801699_);}
	.st12{fill:url(#SVGID_00000072277797552835347930000002625585634145608608_);}
	.st13{fill:url(#SVGID_00000093161100871819704400000002544539967413117583_);}
	.st14{fill:url(#SVGID_00000117656985908173536880000014555468387514055868_);}
	.st15{fill:url(#SVGID_00000135659037093660415200000008977269737240881584_);}
	.st16{fill:url(#SVGID_00000054248532775907440150000001146443750968550036_);}
	.st17{fill:#E5A38C;}
	.st18{fill:#121866;}
	.st19{fill:url(#SVGID_00000140004753807603491570000017123175964916466562_);}
	.st20{fill:url(#SVGID_00000006671037899095997000000018332799331689955218_);}
	.st21{fill:#4A94FF;}
	.st22{fill:url(#SVGID_00000092427004020300098790000015706752866505411746_);}
	.st23{fill:url(#SVGID_00000126288956900338043540000009847684088418294697_);}
	.st24{fill:url(#SVGID_00000097481067962538246830000011853874324062180260_);}
	.st25{fill:#7D97F4;}
	.st26{fill:url(#SVGID_00000012461906243784762380000015681293044301295013_);}
	.st27{fill:url(#SVGID_00000013183678054502844900000014013155885391951269_);}
	.st28{fill:url(#SVGID_00000026135540052140521490000011290517028625680521_);}
	.st29{fill:url(#SVGID_00000152966845736887941440000014022787310832819602_);}
	.st30{fill:url(#SVGID_00000072271328340591559890000017021511011030164868_);}
	.st31{fill:url(#SVGID_00000015321299317836049180000006168617734293157548_);}
	.st32{fill:url(#SVGID_00000024720791788153221340000004500993865887234715_);}
	.st33{fill:url(#SVGID_00000150798602504633793490000012458143399436414130_);}
	.st34{fill:url(#SVGID_00000142892257212230445150000016256053833062928042_);}
	.st35{fill:url(#SVGID_00000073687678773319757880000017082191148743070346_);}
	.st36{fill:url(#SVGID_00000159465992829259169140000016176285459031102366_);}
	.st37{fill:url(#SVGID_00000155840575324129203440000002718832299031447470_);}
	.st38{fill:url(#SVGID_00000134944110104871931540000002555357929359048847_);}
	.st39{fill:url(#SVGID_00000102517827443693072620000008062692908706700217_);}
	.st40{fill:url(#SVGID_00000030459497595121540190000003733772280673862564_);}
	.st41{fill:url(#SVGID_00000109748254001272525340000009471891620875382688_);}
	.st42{fill:#91B3FA;}
	.st43{fill:#BDD0FB;}
	.st44{fill:url(#SVGID_00000159434966829143168160000013250811089984710298_);}
</style>
<g id="Background">
</g>
<g id="Illustration">
	<g>
		<path class="st0" d="M338.6,243.5c-33,77.8-121.1,121.4-197.4,109.6c-12.4-1.9-46.5-7.6-76.6-34.5C6.5,266.8-5.9,164.4,40.9,92.1
			C75,39.6,136.1,9.8,194.2,11.2c12.5,0.3,60.4,2.3,102.5,37c6.2,5.1,19.8,17.2,32.1,36.4C357.7,129.9,360.1,192.8,338.6,243.5z"/>
		<g>
			<path class="st1" d="M33.3,121.7L56.5,147C42,158,32.9,179.5,57.2,205l-32.7,15.8C1.7,180.8,4.9,149.1,33.3,121.7z"/>
			<path class="st2" d="M19.7,211.6l22.5,0.4l4-22.2c12.4,25.4,41.6,36,75,25.2l16.9,31.4C89.8,268.3,41,257.1,19.7,211.6z"/>
			<path class="st1" d="M208.3,178.1c18.2-36,66.4-49.3,101-29.6l35.1-11.6c-41-54.7-115.4-44.3-161.7,10.3L208.3,178.1z"/>
			<path class="st2" d="M289.3,216.2l14.9,34.8c54.3-22.6,70.7-99.2,21.7-133l0.4,22.5l-23.1,4.8C337.1,161.5,322,207.2,289.3,216.2
				z"/>
			<path class="st1" d="M192.3,226.1c51.5,37,96.5,41.8,132.4,12.4l-25.3-9l7-22.5c-31.5,21.9-60.8,14.8-88.9-7.6L192.3,226.1z"/>
			<path class="st2" d="M33.3,121.7l0,24.4l23.2,1c15-9.8,36.8-9,64.2-0.2l15.9-35.3C95,93.7,60.9,98,33.3,121.7z"/>
			<path class="st1" d="M120.7,146.8l-13-27.1l29-8.2c18.8,9.8,34,21.8,46.1,35.7c13.3,29.3,31.6,54.4,54.4,65l-30,0.3l4.6,26.2
				c-11.8-7-23.1-14.9-33.1-23.5l-22.5-40C148.3,163.2,137.4,153.5,120.7,146.8z"/>
			<path class="st2" d="M182.7,147.2c-8.8,9.4-14.6,23.3-22.9,33.2c-13.2,15.7-29.7,36.1-59.4,38.7l24.3,12.6l-14.4,23.7
				c48.5-9.6,82.4-41.2,98.1-77.3v-34.7L182.7,147.2z"/>
		</g>
		<g>
			<linearGradient id="SVGID_1_" gradientUnits="userSpaceOnUse" x1="188.3797" y1="68.5586" x2="310.9432" y2="68.5586">
				<stop  offset="0" style="stop-color:#1A1A1A"/>
				<stop  offset="1" style="stop-color:#4D4D4D"/>
			</linearGradient>
			<path class="st3" d="M190.9,46.4l118-0.5c1.1,0,2,0.9,2,2l-0.3,41.3c0,1.1-0.9,2-2.1,2c-10.4-0.3-117-1.7-119-1.6
				c-2,0.1-0.9-32.5-0.6-41.3C189,47.3,189.9,46.4,190.9,46.4z"/>
			<path class="st4" d="M308.7,89.6L308.7,89.6c-6.7-0.2-70.4-1-101-1.4c-9-0.1-15.3-0.2-17-0.2l-0.2,0l0-0.2
				c-0.7-4.1-0.7-17.7,0-39.5c0-0.2,0.2-0.4,0.4-0.4l118-0.5c0.1,0,0.2,0,0.3,0.1c0.1,0.1,0.1,0.2,0.1,0.3l-0.3,41.3
				C309.1,89.4,308.9,89.6,308.7,89.6z M190.9,87.7c1.9,0,8.1,0.1,16.8,0.2c30.6,0.4,94.3,1.2,101,1.4l0,0c0,0,0,0,0,0l0.3-41.3
				l0-0.2l0,0.2l-118,0.5c0,0,0,0,0,0C190.2,69.9,190.2,83.4,190.9,87.7z"/>
			
				<linearGradient id="SVGID_00000165226035436296194320000015990104810188711077_" gradientUnits="userSpaceOnUse" x1="195.9959" y1="57.0717" x2="242.8425" y2="57.0717">
				<stop  offset="0" style="stop-color:#DAE3FE"/>
				<stop  offset="1" style="stop-color:#E9EFFD"/>
			</linearGradient>
			<path style="opacity:0.7;fill:url(#SVGID_00000165226035436296194320000015990104810188711077_);" d="M196,57.1L196,57.1
				c0,1.1,0.4,2,0.8,2H242c0.5,0,0.8-0.9,0.8-2l0,0c0-1.1-0.4-2-0.8-2h-45.2C196.4,55.1,196,56,196,57.1z"/>
			
				<linearGradient id="SVGID_00000130629118909880035480000014476201965685424518_" gradientUnits="userSpaceOnUse" x1="195.9959" y1="63.9634" x2="242.8425" y2="63.9634">
				<stop  offset="0" style="stop-color:#DAE3FE"/>
				<stop  offset="1" style="stop-color:#E9EFFD"/>
			</linearGradient>
			<path style="opacity:0.7;fill:url(#SVGID_00000130629118909880035480000014476201965685424518_);" d="M196,64L196,64
				c0,1.1,0.4,2,0.8,2H242c0.5,0,0.8-0.9,0.8-2l0,0c0-1.1-0.4-2-0.8-2h-45.2C196.4,61.9,196,62.8,196,64z"/>
			
				<linearGradient id="SVGID_00000048468896221334529110000009947426146896235166_" gradientUnits="userSpaceOnUse" x1="195.9959" y1="70.8551" x2="242.8425" y2="70.8551">
				<stop  offset="0" style="stop-color:#DAE3FE"/>
				<stop  offset="1" style="stop-color:#E9EFFD"/>
			</linearGradient>
			<path style="opacity:0.7;fill:url(#SVGID_00000048468896221334529110000009947426146896235166_);" d="M196,70.9L196,70.9
				c0,1.1,0.4,2,0.8,2H242c0.5,0,0.8-0.9,0.8-2l0,0c0-1.1-0.4-2-0.8-2h-45.2C196.4,68.8,196,69.7,196,70.9z"/>
			
				<linearGradient id="SVGID_00000001639658664257021010000001978333372327097482_" gradientUnits="userSpaceOnUse" x1="195.9959" y1="77.7468" x2="242.8425" y2="77.7468">
				<stop  offset="0" style="stop-color:#DAE3FE"/>
				<stop  offset="1" style="stop-color:#E9EFFD"/>
			</linearGradient>
			<path style="opacity:0.7;fill:url(#SVGID_00000001639658664257021010000001978333372327097482_);" d="M196,77.7L196,77.7
				c0,1.1,0.4,2,0.8,2H242c0.5,0,0.8-0.9,0.8-2l0,0c0-1.1-0.4-2-0.8-2h-45.2C196.4,75.7,196,76.6,196,77.7z"/>
			<g>
				<circle class="st4" cx="254.3" cy="58.5" r="7.9"/>
				<circle class="st4" cx="273.8" cy="58.5" r="7.9"/>
				<circle class="st4" cx="293.4" cy="58.8" r="7.9"/>
				<g>
					<path class="st1" d="M259,56.8c0.2,0.6,0.4,1.2,0.4,1.9c0,2.8-2.3,5-5,5c-1.4,0-5-0.9-5-5c0-2.8,2.3-5,5-5c0.1,0,0.2,0,0.3,0
						v-1.3c-0.1,0-0.2,0-0.3,0c-3.5,0-6.3,2.8-6.3,6.3c0,3.5,2.8,6.3,6.3,6.3c3.5,0,6.3-2.8,6.3-6.3c0-0.9-0.2-1.7-0.5-2.4L259,56.8
						z"/>
					<path class="st1" d="M276.4,63c-0.8,0.5-1.2,1.3-2.2,1.3c-2.8,0-5.6-2.8-5.6-5.6s2.3-5,5-5c0.1,0,0.2,0,0.3,0v-1.3
						c-0.1,0-0.2,0-0.3,0c-3.5,0-6.3,2.8-6.3,6.3c0,3.5,2.8,6.3,6.3,6.3c1.2,0,2.4-0.3,3.3-0.9L276.4,63z"/>
					<path class="st1" d="M297.6,61.6c-0.9,1.3-2.4,2.2-4.2,2.2c-2.8,0-5-2.3-5-5s2.3-5,5-5c0.1,0,0.2,0,0.3,0v-1.3
						c-0.1,0-0.2,0-0.3,0c-3.5,0-6.3,2.8-6.3,6.3c0,3.5,2.8,6.3,6.3,6.3c2.2,0,4.1-1.1,5.2-2.7L297.6,61.6z"/>
				</g>
				<g class="st9">
					
						<linearGradient id="SVGID_00000062880089415552588750000008296008042901232006_" gradientUnits="userSpaceOnUse" x1="246.4303" y1="71.1403" x2="262.1494" y2="71.1403">
						<stop  offset="0" style="stop-color:#DAE3FE"/>
						<stop  offset="1" style="stop-color:#E9EFFD"/>
					</linearGradient>
					<path style="fill:url(#SVGID_00000062880089415552588750000008296008042901232006_);" d="M260.7,69.7h-12.8
						c-0.8,0-1.5,0.7-1.5,1.5s0.7,1.5,1.5,1.5h12.8c0.8,0,1.5-0.7,1.5-1.5S261.5,69.7,260.7,69.7z"/>
					
						<linearGradient id="SVGID_00000133513751124450479860000007255434280710366394_" gradientUnits="userSpaceOnUse" x1="265.9636" y1="71.1403" x2="281.6826" y2="71.1403">
						<stop  offset="0" style="stop-color:#DAE3FE"/>
						<stop  offset="1" style="stop-color:#E9EFFD"/>
					</linearGradient>
					<path style="fill:url(#SVGID_00000133513751124450479860000007255434280710366394_);" d="M280.2,69.7h-12.8
						c-0.8,0-1.5,0.7-1.5,1.5s0.7,1.5,1.5,1.5h12.8c0.8,0,1.5-0.7,1.5-1.5S281,69.7,280.2,69.7z"/>
					
						<linearGradient id="SVGID_00000132766193017901443640000011462237362324421792_" gradientUnits="userSpaceOnUse" x1="285.4969" y1="71.1403" x2="301.2159" y2="71.1403">
						<stop  offset="0" style="stop-color:#DAE3FE"/>
						<stop  offset="1" style="stop-color:#E9EFFD"/>
					</linearGradient>
					<path style="fill:url(#SVGID_00000132766193017901443640000011462237362324421792_);" d="M287,72.6h12.8c0.8,0,1.5-0.7,1.5-1.5
						s-0.7-1.5-1.5-1.5H287c-0.8,0-1.5,0.7-1.5,1.5S286.1,72.6,287,72.6z"/>
					
						<linearGradient id="SVGID_00000091711587122604798780000002255372661044271033_" gradientUnits="userSpaceOnUse" x1="246.4303" y1="79.9549" x2="262.1494" y2="79.9549">
						<stop  offset="0" style="stop-color:#DAE3FE"/>
						<stop  offset="1" style="stop-color:#E9EFFD"/>
					</linearGradient>
					<path style="fill:url(#SVGID_00000091711587122604798780000002255372661044271033_);" d="M260.7,74.2h-12.8
						c-0.8,0-1.5,0.7-1.5,1.5v8.6c0,0.8,0.7,1.5,1.5,1.5h12.8c0.8,0,1.5-0.7,1.5-1.5v-8.6C262.1,74.9,261.5,74.2,260.7,74.2z"/>
					
						<linearGradient id="SVGID_00000002346433191376836410000000466556116276240060_" gradientUnits="userSpaceOnUse" x1="265.9636" y1="79.9549" x2="281.6826" y2="79.9549">
						<stop  offset="0" style="stop-color:#DAE3FE"/>
						<stop  offset="1" style="stop-color:#E9EFFD"/>
					</linearGradient>
					<path style="fill:url(#SVGID_00000002346433191376836410000000466556116276240060_);" d="M280.2,74.2h-12.8
						c-0.8,0-1.5,0.7-1.5,1.5v8.6c0,0.8,0.7,1.5,1.5,1.5h12.8c0.8,0,1.5-0.7,1.5-1.5v-8.6C281.7,74.9,281,74.2,280.2,74.2z"/>
					
						<linearGradient id="SVGID_00000023264758447700752880000013357403455318067873_" gradientUnits="userSpaceOnUse" x1="285.4969" y1="79.9549" x2="301.2159" y2="79.9549">
						<stop  offset="0" style="stop-color:#DAE3FE"/>
						<stop  offset="1" style="stop-color:#E9EFFD"/>
					</linearGradient>
					<path style="fill:url(#SVGID_00000023264758447700752880000013357403455318067873_);" d="M299.8,74.2H287
						c-0.8,0-1.5,0.7-1.5,1.5v8.6c0,0.8,0.7,1.5,1.5,1.5h12.8c0.8,0,1.5-0.7,1.5-1.5v-8.6C301.2,74.9,300.6,74.2,299.8,74.2z"/>
				</g>
			</g>
		</g>
		<g>
			<g>
				
					<linearGradient id="SVGID_00000085240221508716087050000000442273721403735227_" gradientUnits="userSpaceOnUse" x1="5151.3857" y1="331.5009" x2="5092.4956" y2="395.5569" gradientTransform="matrix(1 9.500000e-03 -9.500000e-03 1 -4989.5879 -47.615)">
					<stop  offset="0" style="stop-color:#09005D"/>
					<stop  offset="1" style="stop-color:#1A0F91"/>
				</linearGradient>
				<path style="fill:url(#SVGID_00000085240221508716087050000000442273721403735227_);" d="M140,337.4c0,0-0.6,3.4-1,6.9
					c-0.1,1.3,0.9,2.5,2.2,2.6c4.5,0.2,14.3,0.7,17.8,0.6c0.5,0,0.9-0.6,0.7-1l0,0c-0.2-0.4-0.5-0.7-0.9-0.9l-16-7.5L140,337.4z"/>
				<path class="st17" d="M139.5,335.4l0.5,4.1c0,0,2.8,1.3,4.7-0.1l-1.1-4.6L139.5,335.4z"/>
				<path class="st18" d="M140.6,257.7c-0.2,1.1-1.6,53.8,3.8,77.5c0.1,0.4-0.1,0.8-0.5,0.9c-0.9,0.3-2.6,0.8-4.6,0.9
					c-0.6,0-1.2-0.4-1.4-1c-1.6-5.5-9-33-9.8-59.3c-0.8-29.3,0-1,0-1l0.8-18.1L140.6,257.7z"/>
				
					<linearGradient id="SVGID_00000113352109784661051890000004979116636405014718_" gradientUnits="userSpaceOnUse" x1="5138.1748" y1="319.3531" x2="5079.2822" y2="383.4118" gradientTransform="matrix(1 9.500000e-03 -9.500000e-03 1 -4989.5879 -47.615)">
					<stop  offset="0" style="stop-color:#09005D"/>
					<stop  offset="1" style="stop-color:#1A0F91"/>
				</linearGradient>
				<path style="fill:url(#SVGID_00000113352109784661051890000004979116636405014718_);" d="M121.5,339c0,0-1,1.7-2,6.4
					c-0.2,0.8,0.4,1.6,1.2,1.7c1.5,0.2,3.8,0.4,5.7,0.4c0.9,0,1.5-0.7,1.4-1.6c-0.2-1.7-0.8-4.5-2.8-6.7L121.5,339z"/>
				
					<linearGradient id="SVGID_00000098188093619992502500000007759344570949755306_" gradientUnits="userSpaceOnUse" x1="5113.418" y1="335.9888" x2="5117.9346" y2="335.9888" gradientTransform="matrix(1 9.500000e-03 -9.500000e-03 1 -4989.5879 -47.615)">
					<stop  offset="0" style="stop-color:#FEBBBA"/>
					<stop  offset="1" style="stop-color:#FF928E"/>
				</linearGradient>
				<path style="fill:url(#SVGID_00000098188093619992502500000007759344570949755306_);" d="M120.7,333.7l1.1,6.3
					c0,0,1.1,0.9,3.4,0.3l-0.5-6.7L120.7,333.7z"/>
				<path class="st18" d="M118.3,259.1c-4.9,27.8,0.3,68.8,2.2,76.8c0.1,0.5,0.5,0.9,1,1c0.8,0.1,2.2,0.3,3.6-0.1
					c0.5-0.1,0.8-0.6,0.8-1c0.3-6.5,0.2-46.3,4.7-61.9c0.2-0.8,0.7-1.5,1.4-2l8.4-5.8l0.7-9.6L118.3,259.1z"/>
				<g>
					<path class="st21" d="M148.2,206.7c-13.8-0.4-29.1,3.4-29.1,3.4c-4.3,24-1.2,51.7-1.2,51.7c10.7,2.9,22.8-1.5,22.8-1.5
						c1.9-10,10.4-38.2,10.4-38.2c6.8-0.8,12.3-2.7,16.9-5.2c-3.5-4.1-5.1-9.3-5.7-12.3C157.4,206,152.4,206.8,148.2,206.7z"/>
					<path class="st17" d="M189.2,186.7c-1.3-1.7-3.1-0.9-3.1-0.9c-2.1,8.6-12.8,15.4-23.8,18.7c0.7,3.1,2.3,8.2,5.7,12.3
						C186.3,206.8,189.2,186.7,189.2,186.7z"/>
				</g>
				<g>
					<path class="st17" d="M188.8,187.2c0.1,0.5-1.5,1.1-2.5-0.7c0-0.9-0.5-4.7,0-5.4c2.9-3.8,8.4-8.6,8.4-8.6
						c0.9,0.9,0.1,1.8,0.1,1.8l-2.7,2.7c0.5,1,1.2,1.9,1.5,3.1c0.2,0.9,0.1,1.9-0.4,2.7c-0.5,0.8-1.1,1.9-1.7,2.8
						C190.5,187.2,188.8,187.2,188.8,187.2z"/>
					<path class="st17" d="M191,178.8l-2.4,2l-0.8,2l2.1,2.4c0,0,0.8-4,1.3-4.9C191.8,179.5,191.5,179,191,178.8z"/>
				</g>
				<path class="st21" d="M124.2,223.5l-5.2-13.4c0,0-13,8.6-15.2,19.7c2.4,0.2,6.9,0.9,11.2,3.1C116,227.7,124.2,223.5,124.2,223.5
					z"/>
				<path class="st17" d="M135.4,236.2c0,0-14.6,8.1-19.4,1c-1-1.5-1.2-2.9-1-4.3c-4.3-2.2-8.8-2.9-11.2-3.1
					c-0.7,3.3-0.4,6.9,1.6,10.5c8.4,15.7,31.9-0.6,31.9-0.6L135.4,236.2z"/>
				<path class="st17" d="M134.3,195.4l-4.5,12.7c-0.1,0.2,0,0.4,0.2,0.6c1.2,0.7,5.5,2.6,10.7-0.6c0.5-0.3,0.9-0.9,1-1.5l1.5-11
					L134.3,195.4z"/>
				<g>
					<path class="st17" d="M144,183.7c0,0,4.7,9.1,4.1,12.8c-0.7,3.7-6.6,3.3-11.8,0.3l-3.6-9.8L144,183.7z"/>
					
						<linearGradient id="SVGID_00000050663643177081147310000008273234801862972843_" gradientUnits="userSpaceOnUse" x1="-2179.1423" y1="1416.4747" x2="-2174.9624" y2="1440.3153" gradientTransform="matrix(0.7523 -0.6588 0.6588 0.7523 830.3093 -2325.6951)">
						<stop  offset="0" style="stop-color:#1A1A1A"/>
						<stop  offset="1" style="stop-color:#4D4D4D"/>
					</linearGradient>
					<path style="fill:url(#SVGID_00000050663643177081147310000008273234801862972843_);" d="M136.5,192c0.2-0.1,0.3-0.4,0.2-0.5
						c-0.4-0.6-1.1-1.8-1.3-2.9c0,0-0.9-0.6,2.2-1.3c3.1-0.7,7.7-1.8,8.7-4.4c1-2.5-1.4-9-5.4-3.9c-0.2,0.2-0.4,0.2-0.6,0
						c-0.6-0.8-2.3-2.6-4.7-1.6c-2.2,1-2.5,2.6-2.5,3.4c0,0.2-0.2,0.4-0.4,0.4c-1.1-0.2-3.8-0.4-5.1,2.3c-1.1,2.3-0.4,3.5,0.2,4.2
						c0.2,0.2,0.1,0.5-0.2,0.6c-0.7,0.2-1.7,0.8-1.6,2.5c0.1,2.4,2.8,2.2,3.5,2.1c0.1,0,0.2,0,0.3,0.1c0.6,0.7,3.5,3.8,6.7,4.2
						c0.3,0,0.5-0.2,0.4-0.5l-1.3-4c-0.1-0.2,0-0.4,0.2-0.5L136.5,192z"/>
					<path class="st17" d="M137,192.5c0,0-3.4-2.4-3.7-0.4c-0.3,2,3.1,2.9,4.7,2.2L137,192.5z"/>
				</g>
				<g>
					<g>
						
							<linearGradient id="SVGID_00000093882584355456252360000018044704086013429139_" gradientUnits="userSpaceOnUse" x1="4852.0273" y1="216.9392" x2="4870.689" y2="294.6976" gradientTransform="matrix(1 0 0 1 -4705.6621 0)">
							<stop  offset="0" style="stop-color:#1A1A1A"/>
							<stop  offset="1" style="stop-color:#4D4D4D"/>
						</linearGradient>
						<path style="fill:url(#SVGID_00000093882584355456252360000018044704086013429139_);" d="M132.4,248.9l7.9-27.7
							c0.1-0.3,0.4-0.5,0.7-0.6c1.4-0.2,5.6-0.6,10.4-1c5.8-0.5,12.5-0.9,16.5-0.5c0.6,0,0.9,0.7,0.7,1.2
							c-2.3,4.6-11.7,23.4-16.4,29.6c-0.2,0.2-0.4,0.3-0.7,0.3l-18.4-0.2C132.7,249.9,132.3,249.4,132.4,248.9z"/>
						<path class="st17" d="M134.3,242.2c0,0-1.1-4.5-0.7-6.2c0.4-1.6,1.3-3.7,4.2-3.2c2.9,0.5,6.3,1.7,6.3,1.7s-0.2,2.1-2.4,1.4
							l1.4,1.1c0,0-0.2,1.7-2,0.8l1.3,1.4c0,0-0.8,1.4-2.2,0.5C138.9,238.8,138.2,242.8,134.3,242.2z"/>
					</g>
					<path class="st4" d="M150.9,227.8c0,1.3,1,2.3,2.3,2.3c1.3,0,2.3-1,2.3-2.3c0-1.3-1-2.3-2.3-2.3
						C152,225.5,150.9,226.5,150.9,227.8z"/>
					
						<linearGradient id="SVGID_00000034795257700518671460000011553339153918482074_" gradientUnits="userSpaceOnUse" x1="140.666" y1="225.0204" x2="163.3544" y2="225.0204">
						<stop  offset="0" style="stop-color:#DAE3FE"/>
						<stop  offset="1" style="stop-color:#E9EFFD"/>
					</linearGradient>
					<path style="fill:url(#SVGID_00000034795257700518671460000011553339153918482074_);" d="M141.3,229.4l-0.6-0.2l1.6-5.5
						c0.3-0.9,1-1.6,1.9-1.7c5.1-1.1,18.6-1.3,19.2-1.3l0,0.6c-0.1,0-14,0.2-19.1,1.3c-0.7,0.1-1.2,0.6-1.4,1.3L141.3,229.4z"/>
				</g>
			</g>
			<g>
				<path class="st25" d="M47.3,306.9c-0.8,1.3-4.2,29.6-4.7,40.1c0,0.7,0.5,1.3,1.2,1.3l0,0c0.6,0,1.1-0.4,1.2-1l6.2-39.4
					L47.3,306.9z"/>
				<path class="st25" d="M74.4,306.9c0.8,1.3,4.2,29.6,4.7,40.1c0,0.7-0.5,1.3-1.2,1.3l0,0c-0.6,0-1.1-0.4-1.2-1l-6.2-39.4
					L74.4,306.9z"/>
				<path class="st25" d="M42.2,304.7l0,0.3c0,2.2,1.9,4,4.3,4.1l28.4,0.5c2.4,0,4.3-1.7,4.4-3.9l0-0.3c0.1-2.3-1.8-4.2-4.3-4.3
					l-28.4-0.5C44.3,300.7,42.3,302.5,42.2,304.7z"/>
			</g>
			<g>
				<g>
					<path class="st25" d="M102.1,346c-5.1,0-7.3-0.4-8.3-0.8c0.2,0.8,0.9,1.5,1.9,1.5h17.9c0.6,0,1-0.6,0.8-1.1
						C112.4,345.7,108.1,346,102.1,346z"/>
					
						<linearGradient id="SVGID_00000151530860112002188890000006802110781257239696_" gradientUnits="userSpaceOnUse" x1="109.7218" y1="306.2484" x2="104.0899" y2="345.1602">
						<stop  offset="0" style="stop-color:#4F52FF"/>
						<stop  offset="1" style="stop-color:#4042E2"/>
					</linearGradient>
					<path style="fill:url(#SVGID_00000151530860112002188890000006802110781257239696_);" d="M114.4,345.5c0-0.1-0.1-0.2-0.1-0.3
						c-1.4-1.7-4.1-4.5-7.8-4.4c-5.5,0.1-7.4,0.7-11.6,0l-1,3.3c-0.1,0.3-0.1,0.7,0,1c1,0.4,3.2,0.8,8.3,0.8
						C108.1,346,112.4,345.7,114.4,345.5z"/>
				</g>
				<path class="st17" d="M96.1,337.3l-1.2,4.2c0,0,2.7,1.2,5.1,0.2l0.5-3.6L96.1,337.3z"/>
				<g>
					<path class="st25" d="M133.1,343.3c-3.9,3.2-6,4.2-7,4.5c0.7,0.5,1.7,0.6,2.4,0l13.9-11.2c0.5-0.4,0.4-1.1,0-1.4
						C141,336.7,137.8,339.6,133.1,343.3z"/>
					
						<linearGradient id="SVGID_00000067238453079814277790000003587912208753071019_" gradientUnits="userSpaceOnUse" x1="137.6183" y1="310.2857" x2="131.9863" y2="349.1978">
						<stop  offset="0" style="stop-color:#4F52FF"/>
						<stop  offset="1" style="stop-color:#4042E2"/>
					</linearGradient>
					<path style="fill:url(#SVGID_00000067238453079814277790000003587912208753071019_);" d="M142.5,335.3
						c-0.1-0.1-0.2-0.1-0.3-0.1c-2.1-0.5-6-0.9-8.8,1.5c-4.2,3.5-5.3,5.1-9,7.3l1.3,3.2c0.1,0.3,0.3,0.6,0.6,0.8c1-0.3,3-1.4,7-4.5
						C137.8,339.6,141,336.7,142.5,335.3z"/>
				</g>
				<path class="st18" d="M69.9,289.7c0,0,30.3,2.5,36.5,5.4c6.2,2.9-5.1,43.9-5.1,43.9s-1.7,0.8-5.4-0.4c0,0,3.9-30.2,1-36.8
					L64,296.5L69.9,289.7z"/>
				<path class="st17" d="M121.3,338.2c0.3,0.3,3,5.8,3,5.8s3-0.7,3.7-2.6l-2.7-5L121.3,338.2z"/>
				<path class="st18" d="M51.6,289.5c0,0-1,2.4-0.9,5.5c0.1,4.4,3.6,7.9,7.9,8.1l35.8,1.6c0.8,0,1.4,0.6,1.6,1.3
					c0.8,3.3,4.9,13.2,25,33.2c0.5,0.5,1.4,0.6,2,0.2l2.9-1.8c0.3-0.2,0.4-0.6,0.2-0.9l-20.8-35.6c-1.1-1.8-2.9-3.1-4.9-3.6
					l-30.5-7.8L51.6,289.5z"/>
				<path class="st17" d="M86.9,233.9c0,0-3.8,6.8-7.7,10.1l8.1,4.5c0,0,1.8-7.2,6-9.3L86.9,233.9z"/>
				<path class="st21" d="M51,289.7c0,0,9.7,2.4,18.9,0c0,0,12.9-17.3,17.9-22.1c0,0,8,12.6,25.7,14.3l1-2.2c0,0-14.1-6.5-18.4-16.5
					c-4.3-10-6.1-14.2-10-16.9c-2.5-1.6-3.9-2.7-4.7-3.3c-0.4-0.3-1-0.4-1.4-0.1C75.6,245.6,55.9,259.1,51,289.7z"/>
				<path class="st17" d="M112.3,278.7l2-0.5l6.1-1.4c0.7-0.2,1.5,0,2.1,0.4l5.2,3.3l-14.4,0L112.3,278.7z"/>
				<g>
					<path class="st17" d="M93,223.8c0,0,3.7,6.2,4.4,9.6c0.6,3.4,1.7,5.6-2.2,6.8c-3.9,1.2-7.5-0.3-9.8-3.5c0,0-3.5-4.9-3.2-7.2
						C82.5,227.2,93,223.8,93,223.8z"/>
					
						<linearGradient id="SVGID_00000023262585795864777780000003269125161973371307_" gradientUnits="userSpaceOnUse" x1="1994.9669" y1="781.9553" x2="2009.892" y2="801.1712" gradientTransform="matrix(0.9914 -0.1306 0.1306 0.9914 -1998.3898 -293.5664)">
						<stop  offset="0" style="stop-color:#1A1A1A"/>
						<stop  offset="1" style="stop-color:#4D4D4D"/>
					</linearGradient>
					<path style="fill:url(#SVGID_00000023262585795864777780000003269125161973371307_);" d="M86.4,234l0.5-0.1c0,0-2.6-4-0.9-5
						c1.7-1,8.8-3.4,10-6.2c1.2-2.7-0.6-5.7-2.7-6.3c-0.1,0-0.3,0-0.3,0.2l-0.1,0.3c-0.1,0.2-0.4,0.2-0.5,0l0,0
						c-0.1-0.2-0.4-0.2-0.5,0c-0.4,0.8-1.5,2.2-4.9,3.3c-4.8,1.6-7.8,4-7.4,7.4c0,0.2-0.2,0.4-0.4,0.3c-0.4-0.2-1-0.2-1.7,0.6
						c-1.2,1.3-0.3,4.2,3,6.2c0.2,0.1,0.2,0.3,0,0.4c-0.5,0.4-1.2,1.4,1,2.2c2.3,0.9,3.5,0.6,4,0.4c0.1,0,0.2-0.2,0.2-0.3l-0.6-3
						c0-0.2,0.1-0.3,0.2-0.3L86.4,234z"/>
					<path class="st17" d="M86.6,234.6c0,0-1.6-4.1-3.4-2.6c-1.7,1.4,1.6,4.6,3.1,4.5L86.6,234.6z"/>
				</g>
			</g>
			<g>
				<g>
					
						<linearGradient id="SVGID_00000098195274648054775260000014112104166205294511_" gradientUnits="userSpaceOnUse" x1="-3915.709" y1="-2495.8003" x2="-3956.842" y2="-2456.0327" gradientTransform="matrix(-1.388 -6.860000e-02 -6.850000e-02 1.3855 -8789.542 -50.6121)">
						<stop  offset="0" style="stop-color:#1A1A1A"/>
						<stop  offset="1" style="stop-color:#4D4D4D"/>
					</linearGradient>
					<path style="fill:url(#SVGID_00000098195274648054775260000014112104166205294511_);" d="M106.8,283.2
						C106.8,283.2,106.8,283.2,106.8,283.2l30.8,0c0.8,0,1.4-0.6,1.4-1.4c0-0.8-0.6-1.4-1.4-1.4l-30.7,0c-0.8,0-1.4,0.6-1.4,1.4
						C105.5,282.5,106.1,283.1,106.8,283.2z"/>
				</g>
				<g>
					
						<linearGradient id="SVGID_00000057136785339967274960000013468316272208885388_" gradientUnits="userSpaceOnUse" x1="-6205.6587" y1="-2102.9622" x2="-6246.79" y2="-2063.196" gradientTransform="matrix(0.6475 -1.2297 -1.2274 -0.6463 6167.208 -10234.8994)">
						<stop  offset="0" style="stop-color:#1A1A1A"/>
						<stop  offset="1" style="stop-color:#4D4D4D"/>
					</linearGradient>
					<path style="fill:url(#SVGID_00000057136785339967274960000013468316272208885388_);" d="M149.5,253.1
						C149.5,253.1,149.4,253.1,149.5,253.1l-13,27.9c-0.3,0.7,0,1.5,0.7,1.8c0.7,0.3,1.5,0,1.8-0.7l12.9-27.9c0.3-0.7,0-1.5-0.7-1.8
						C150.6,252.2,149.8,252.5,149.5,253.1z"/>
				</g>
			</g>
			<g>
				<g>
					<rect x="226.6" y="311.2" class="st25" width="3.2" height="35.1"/>
					<path class="st25" d="M242.4,346.9h-28.4l0,0c0-1.2,0.9-2.1,2.1-2.1h24.2C241.5,344.8,242.4,345.7,242.4,346.9L242.4,346.9z"/>
					<path class="st25" d="M246.7,310c0,1.9-1.6,3.5-3.5,3.5h-28.7c-1.9,0-3.5-1.6-3.5-3.5v-3.2c0-1.9,1.6-3.5,3.5-3.5h28.7
						c1.9,0,3.5,1.6,3.5,3.5V310z"/>
				</g>
				<g>
					<path class="st17" d="M204.3,287.8c0,0-4.8,0.7-10.2,4.4c-0.9,0.6-1.3,1.6-1.2,2.6c0.6,5.1,3.3,21.8,12.1,38
						c0.5,0.9,0.6,1.9,0.4,2.8l-1.5,7.1l-2.8,2.7h7.3l4.9-13.1l-2.1-0.7c-1.6-0.5-2.7-2-2.7-3.7l-0.2-14.1
						c0.2-6.3-3.9-10.6-3.9-10.6l11.7-0.6L204.3,287.8z"/>
					
						<linearGradient id="SVGID_00000089559888290706975000000003916112930204095911_" gradientUnits="userSpaceOnUse" x1="206.9853" y1="331.5773" x2="203.5957" y2="383.5504">
						<stop  offset="0" style="stop-color:#4F52FF"/>
						<stop  offset="1" style="stop-color:#4042E2"/>
					</linearGradient>
					<path style="fill:url(#SVGID_00000089559888290706975000000003916112930204095911_);" d="M198.2,346.6c-0.7,0.9,7.2,2,11.1,0.1
						c0,0,5.5-9.5,5.5-14.4c0,0-0.4-1-3.6-0.8c0,0-1.8,11.3-3.8,12.5c-1.9,1.3-5.4,0.1-5.4,0.1S199.2,345.3,198.2,346.6z"/>
					<path class="st17" d="M214.5,303.3c-0.1-0.1-12.5-1.5-12.5-1.5s0.4,3.8-0.9,9c-1.3,5.2-19.6,27.9-19.6,27.9l1.9,6.1
						c-5.9,2.1-11.8,2.4-17.5,1.1l11.9-7.1c0,0,11.1-38,18-44.8l12.5-4.3L214.5,303.3z"/>
					<path class="st18" d="M242.4,281.2c0,0,7.2,10.7,7.8,15.6c0.6,4.9-2,6.9-9.5,7.2s-27.7,0.3-27.7,0.3l-17.2-14.7
						c0,0,12.5-4.5,15.8-5.7C214.9,282.6,242.4,281.2,242.4,281.2z"/>
					
						<linearGradient id="SVGID_00000068640660493150064580000005379490305280351888_" gradientUnits="userSpaceOnUse" x1="174.2765" y1="329.4442" x2="170.8869" y2="381.4173">
						<stop  offset="0" style="stop-color:#4F52FF"/>
						<stop  offset="1" style="stop-color:#4042E2"/>
					</linearGradient>
					<path style="fill:url(#SVGID_00000068640660493150064580000005379490305280351888_);" d="M182.6,342.7c0,0,2.1,2,0.7,4.2
						c0,0-16.4,2.9-20.8,1.6c0,0,0.9-2.1,5.9-4.5l-0.4,0.3c-0.5,0.4-0.2,1.1,0.4,1.1C171.7,345.2,178.6,344.6,182.6,342.7z"/>
				</g>
				<g>
					
						<linearGradient id="SVGID_00000018230934125701632730000001519661141785075594_" gradientUnits="userSpaceOnUse" x1="234.2072" y1="201.7744" x2="226.1853" y2="243.9181">
						<stop  offset="0" style="stop-color:#1A1A1A"/>
						<stop  offset="1" style="stop-color:#4D4D4D"/>
					</linearGradient>
					<path style="fill:url(#SVGID_00000018230934125701632730000001519661141785075594_);" d="M211.3,213.4
						c14.7-2.5,21.6,9.5,21.1,12c-0.1,0.3,0.2,0.6,0.6,0.5c1.7-0.5,5.4-1,7.7,1.9c2,2.6,0.5,5-0.7,6.3c-0.3,0.3,0,0.8,0.4,0.8
						c3.1-0.4,9.8-0.5,10.9,5.8c1,5.9-3.1,7.6-5.5,8c-0.4,0.1-0.5,0.6-0.2,0.8c1.2,0.8,2.6,2.4,2.1,5.5c-0.9,4.9-10.5,4.5-11.7,4.5
						c-0.1,0-0.1,0-0.2-0.1l-15.4-8.8c-0.1-0.1-0.2-0.2-0.2-0.3l-3.1-18c0-0.1,0-0.3,0.1-0.4l-10.1-14.2
						C203.5,217.2,211.1,213.4,211.3,213.4z"/>
					<path class="st21" d="M223,279.8c0,0-8.4-8-12.5-13.3c-2.2-2.9-2.9-6.6-1.9-10.1c1.9-6.3,5.2-12.9,5.5-13.9
						c0.5-1.6,9.9-1.5,9.9-1.5s18.5,12,25.7,32.3l-8.2,2.5c0,0-4.8-8.1-9.6-13.2c0,0,8.2,10.9,8.5,15.4L223,279.8z"/>
					<path class="st17" d="M213,233.8c0.1,0.3,2.5,8.5,2.7,8.6c0.2,0.2,5.4,0.4,7.8-1.2l-6.1-11.8L213,233.8z"/>
					<g>
						<path class="st17" d="M203.2,223.3c0,0-1.2,4.7,2.1,10.9c3.3,6.3,7,6.3,9,4.2c2-2,4.5-5.4,3.9-11.5
							C217.6,221,204.9,217.4,203.2,223.3z"/>
						
							<linearGradient id="SVGID_00000111190007935484973850000012222144238825317269_" gradientUnits="userSpaceOnUse" x1="198.0089" y1="221.5862" x2="221.8999" y2="221.5862">
							<stop  offset="0" style="stop-color:#1A1A1A"/>
							<stop  offset="1" style="stop-color:#4D4D4D"/>
						</linearGradient>
						<path style="fill:url(#SVGID_00000111190007935484973850000012222144238825317269_);" d="M213.7,227.4c0,0-5.4-8.3-10.5-1.8
							l-0.1,2.4c0,0-6-0.7-4.9-6.2c1-5.5,6.2-8.9,12.9-6.5c6.6,2.4,10.5,4.8,10.9,9.6c0.4,4.8-3.4,3.7-3.4,3.7s-1.2-3.4-3-3.7
							c-1.8-0.3-1.3,2.3-1.3,2.3L213.7,227.4z"/>
						<path class="st17" d="M215.1,227.3c0,0-2.8-4.3,0.1-4.9c2.9-0.6,2.4,4.1,2.1,5.9L215.1,227.3z"/>
					</g>
					<path class="st17" d="M205.9,280.4l6.2-5.9l8.5,3.6c0,0,8.5,1.3,13.3,0c4.8-1.3,4.8-1.3,4.8-1.3l11-3.4l1.7,4.9
						c0.4,1.2,0,2.6-1.1,3.4c-0.9,0.7-2.1,1.4-2.8,1.7c-1.4,0.6-35.6-0.4-35.6-0.4L205.9,280.4z"/>
				</g>
				<g>
					
						<linearGradient id="SVGID_00000150104862677950369250000009245461486060915840_" gradientUnits="userSpaceOnUse" x1="176.7838" y1="422.4311" x2="148.0268" y2="430.3126" gradientTransform="matrix(0.9988 -4.940000e-02 4.940000e-02 0.9988 37.8395 -139.4782)">
						<stop  offset="0" style="stop-color:#1A1A1A"/>
						<stop  offset="1" style="stop-color:#4D4D4D"/>
					</linearGradient>
					<path style="fill:url(#SVGID_00000150104862677950369250000009245461486060915840_);" d="M229.2,283.2
						C229.2,283.2,229.2,283.2,229.2,283.2l-35.8,0c-0.9,0-1.6-0.7-1.6-1.6c0-0.9,0.7-1.6,1.6-1.6l35.7,0c0.9,0,1.6,0.7,1.6,1.6
						C230.7,282.5,230.1,283.2,229.2,283.2z"/>
					
						<linearGradient id="SVGID_00000069386703357382084440000017825074556523513754_" gradientUnits="userSpaceOnUse" x1="196.3581" y1="255.1356" x2="175.9537" y2="276.7018">
						<stop  offset="0" style="stop-color:#1A1A1A"/>
						<stop  offset="1" style="stop-color:#4D4D4D"/>
					</linearGradient>
					<path style="fill:url(#SVGID_00000069386703357382084440000017825074556523513754_);" d="M161.4,250.8h29.7
						c2.2,0,4.2,1.3,5.1,3.2l13.7,29.1H173c-1.4,0-2.7-0.9-3.2-2.2l-10.7-27C158.5,252.5,159.7,250.8,161.4,250.8z"/>
					<path class="st4" d="M182.3,265.7c0.6,2,0.2,3.9-1.1,4.3c-1.2,0.4-2.8-0.9-3.4-2.9c-0.6-2-0.2-3.9,1.1-4.3
						C180.1,262.4,181.7,263.7,182.3,265.7z"/>
				</g>
			</g>
			<g>
				<g>
					
						<linearGradient id="SVGID_00000152253929028167821240000004871978205101560707_" gradientUnits="userSpaceOnUse" x1="-10318.3809" y1="380.1507" x2="-10318.0791" y2="412.0878" gradientTransform="matrix(-1 0 0 1 -10058.1553 0)">
						<stop  offset="0" style="stop-color:#09005D"/>
						<stop  offset="1" style="stop-color:#1A0F91"/>
					</linearGradient>
					<path style="fill:url(#SVGID_00000152253929028167821240000004871978205101560707_);" d="M269.9,342.5c0,0,0.4,2.1,0.5,4.5
						c0.1,1.1-0.7,2-1.8,2.1c-3.7,0.4-12,1-17.3,0.2c-0.7-0.1-1-1-0.5-1.5c2.2-2,7.5-6,16.2-6.9L269.9,342.5z"/>
					<path class="st17" d="M271.7,337.8l-1.8,4.5c-0.3,0.6-0.9,1-1.5,0.9c-0.5,0-1-0.1-1.5-0.3c-1-0.3-1.6-1.4-1.3-2.5l1.4-4.7
						L271.7,337.8z"/>
					
						<linearGradient id="SVGID_00000078005015487480297990000011770619366361980544_" gradientUnits="userSpaceOnUse" x1="-10361.5293" y1="380.5576" x2="-10361.2285" y2="412.4945" gradientTransform="matrix(-1 0 0 1 -10058.1553 0)">
						<stop  offset="0" style="stop-color:#09005D"/>
						<stop  offset="1" style="stop-color:#1A0F91"/>
					</linearGradient>
					<path style="fill:url(#SVGID_00000078005015487480297990000011770619366361980544_);" d="M303.3,346.1c0,0-3.7,3.1-5.1,7.1
						c-0.4,1.1,0.4,2.2,1.6,2.2h7.6c1.1,0,2-1,1.8-2.1C308.7,350.6,307.3,346.1,303.3,346.1z"/>
					<path class="st17" d="M307.9,342.1c0,0-0.7,3.3-1.3,5.5c-0.1,0.4-0.5,0.6-0.9,0.5c-1.2-0.4-2.1-0.6-2.8-0.5
						c-0.3,0-0.6-0.2-0.6-0.5l-0.1-5.5L307.9,342.1z"/>
					<path class="st18" d="M288.2,267.7l-22.5,68.6c0,0,4.3,2.8,6.4,2.7l26.7-55.2c0,0,4.7,34,2.4,58.4l7.7,0.6
						c0,0,12.4-62.4,3-83.7L288.2,267.7z"/>
				</g>
				<path class="st21" d="M284,207.3c0,0,18.2,1.6,15.6,14.6c0,0,10.1,19,14.8,41.3c0.2,0.7-0.3,1.4-1.1,1.6l-30.4,5.2
					c-0.8,0.1-1.6-0.4-1.9-1.2l-7.3-28l-2.8,13l-9-2.3l7.6-38.3C269.7,213.1,270.7,207.5,284,207.3z"/>
				
					<linearGradient id="SVGID_00000039816797359760738220000010013005804952626083_" gradientUnits="userSpaceOnUse" x1="335.9857" y1="156.6579" x2="267.9896" y2="238.8374">
					<stop  offset="0" style="stop-color:#E1473D"/>
					<stop  offset="1" style="stop-color:#E9605A"/>
				</linearGradient>
				<path style="fill:url(#SVGID_00000039816797359760738220000010013005804952626083_);" d="M273.8,239.4
					C273.8,239.4,273.8,239.4,273.8,239.4c0.2,0,0.2-0.2,0.2-0.3l-2.5-11.6c0-0.1-0.1-0.2-0.3-0.2c-0.1,0-0.2,0.1-0.2,0.3l2.5,11.6
					C273.6,239.4,273.6,239.4,273.8,239.4z"/>
				<path class="st17" d="M275.6,274c1-0.5,2.1-0.7,3.1-0.4l2.1,0.5c0.4,0.1,0.9-0.2,0.9-0.7L284,254c2.7,1.3,6.7,1.1,8,1l-5,22.9
					h-17.6L275.6,274z"/>
				<path class="st17" d="M228.8,231.8l0.5-1.8c0.3-1,1.1-1.8,2-2.2l9.6-3.9c0,0,0.1-1.2-2-2.1c-2.2-0.8-1.7-3.3-1.7-3.3
					s3,1.4,7.3,3.5c2.5,1.2,3.9,3.4,4.6,5l21.8,26.6l-2.6,1.8c-3.4,2.3-8,1.2-9.9-2.4l-11.8-22.7
					C240.9,232.2,234.9,232.5,228.8,231.8z"/>
				<g>
					<path class="st17" d="M278.1,194.9l5.6,15.7c0,0-5,3.9-8.6,2.6l-2.8-9C272.3,204.1,274.4,193.1,278.1,194.9z"/>
					<g>
						<path class="st17" d="M261.4,189.2c0,0.2,5.4,15.3,5.4,15.3l8.5-3.3l-3-15C272.3,186.2,261.4,185.2,261.4,189.2z"/>
						
							<linearGradient id="SVGID_00000175298857513586841470000013538191142411989412_" gradientUnits="userSpaceOnUse" x1="-10337.126" y1="195.183" x2="-10315.2197" y2="195.183" gradientTransform="matrix(-1 0 0 1 -10058.1553 0)">
							<stop  offset="0" style="stop-color:#1A1A1A"/>
							<stop  offset="1" style="stop-color:#4D4D4D"/>
						</linearGradient>
						<path style="fill:url(#SVGID_00000175298857513586841470000013538191142411989412_);" d="M270.8,189.9l2.2,7.8
							c0,0.1,0,0.2,0,0.3c0,0.6-0.2,2.8-2.4,2.5c-2-0.3-3.9-0.5-5,0.1c-0.5,0.2-0.8,0.9-0.6,1.4c0.5,1.4,1.7,4.4,3.1,6.9
							c0.3,0.5,0.9,0.7,1.4,0.5c1.6-0.7,4.9-2.4,7.3-4.3c0.3-0.3,0.5-0.7,0.4-1.1c-0.4-2-1.5-8-1.5-9.8c0-1.6,1.8-2.9,2.6-3.3
							c0.3-0.2,0.5-0.4,0.5-0.7c0.3-1,0.5-3.4-2.6-3.9c-0.6-0.1-1-0.7-0.9-1.3c0.3-1.3,0.2-3.1-2.2-3.8c-2.4-0.7-3.9,0.8-4.7,1.9
							c-0.3,0.5-0.9,0.6-1.4,0.4c-0.3-0.1-0.6-0.1-1,0.2c-0.5,0.4-1.3,0.3-1.6-0.2c-0.7-1-2-2.1-4.2-1.4c-3.9,1.2-3.7,5.7-2.3,8.1
							c1.4,2.4,5.5,0.8,7.5-0.8c1.5-1.2,3.7-0.5,4.7-0.1C270.5,189.3,270.7,189.6,270.8,189.9z"/>
						<path class="st17" d="M276.5,197c0,0-2.3-4.3-0.8-5.7c1.5-1.4,4.1-1.1,4,2.2C279.6,197.8,276.5,197,276.5,197z"/>
					</g>
				</g>
				
					<linearGradient id="SVGID_00000020367430347154601200000015836247475442098821_" gradientUnits="userSpaceOnUse" x1="349.4196" y1="167.7737" x2="281.4236" y2="249.9529">
					<stop  offset="0" style="stop-color:#E1473D"/>
					<stop  offset="1" style="stop-color:#E9605A"/>
				</linearGradient>
				<path style="fill:url(#SVGID_00000020367430347154601200000015836247475442098821_);" d="M290.2,255.4c1.2,0,2.1-0.1,2.2-0.1
					l0.2,0l6.6-30.9c0-0.1-0.1-0.2-0.2-0.3c-0.1,0-0.2,0.1-0.3,0.2l-6.6,30.6c-1,0.1-6.3,0.4-9-1.5l5.7-26.9l-1.2-2.3
					c-0.1-0.1-0.2-0.2-0.3-0.1c-0.1,0.1-0.2,0.2-0.1,0.3l1.1,2.1l-5.8,27l0.1,0.1C284.8,255.1,288,255.4,290.2,255.4z"/>
			</g>
			<g>
				<path class="st42" d="M91.2,349.7c-0.2,0-0.3,0-0.5-0.1c-0.6-0.3-0.9-1-0.6-1.7l24.3-61.5c0.3-0.6,0.9-0.9,1.5-0.7
					c0.6,0.3,0.9,1,0.6,1.7l-24.3,61.5C92.1,349.4,91.6,349.7,91.2,349.7z"/>
				<path class="st42" d="M118.5,349.7c-0.4,0-0.9-0.3-1.1-0.8l-24.3-61.5c-0.3-0.6,0-1.4,0.6-1.7c0.6-0.3,1.3,0,1.5,0.7l24.3,61.5
					c0.3,0.6,0,1.4-0.6,1.7C118.8,349.7,118.7,349.7,118.5,349.7z"/>
				<path class="st42" d="M255.8,349.7c-0.2,0-0.3,0-0.5-0.1c-0.6-0.3-0.9-1-0.6-1.7l24.3-61.5c0.3-0.6,0.9-0.9,1.5-0.7
					c0.6,0.3,0.9,1,0.6,1.7l-24.3,61.5C256.7,349.4,256.2,349.7,255.8,349.7z"/>
				<path class="st42" d="M283.1,349.7c-0.4,0-0.9-0.3-1.1-0.8l-24.3-61.5c-0.3-0.6,0-1.4,0.6-1.7c0.6-0.3,1.3,0,1.5,0.7l24.3,61.5
					c0.3,0.6,0,1.4-0.6,1.7C283.4,349.7,283.3,349.7,283.1,349.7z"/>
			</g>
			<g>
				<path class="st43" d="M252.3,282.1l35.1,0v-3.6h-35.1C253,278.4,253,282.1,252.3,282.1z"/>
				
					<linearGradient id="SVGID_00000011748028486142725830000013150867023650714507_" gradientUnits="userSpaceOnUse" x1="-9494.3105" y1="-1750.1827" x2="-9524.9785" y2="-1675.5829" gradientTransform="matrix(-1 0 0 1 -10058.1553 0)">
					<stop  offset="0" style="stop-color:#4F52FF"/>
					<stop  offset="1" style="stop-color:#4042E2"/>
				</linearGradient>
				<path style="fill:url(#SVGID_00000011748028486142725830000013150867023650714507_);" d="M287,282.1c0.2,0,0.4-0.2,0.4-0.4v-2.8
					c0-0.2-0.2-0.4-0.4-0.4h-35.4c-0.2,0-0.4-0.2-0.4-0.4s0.2-0.4,0.4-0.4h37.8c0.8,0,1.5,0.7,1.5,1.5v2.3c0,0.8-0.6,1.4-1.4,1.4
					h-37.9c-0.2,0-0.4-0.2-0.4-0.4c0-0.2,0.2-0.4,0.4-0.4H287z"/>
			</g>
			<path class="st42" d="M292.5,284.5c0.1-0.4,0-0.8-0.4-1.1c-0.4-0.3-1-0.5-1.6-0.5H80c-0.8,0-1.6,0.3-2,0.7
				c-0.4,0.5-0.5,1-0.2,1.5l2.3,3.3c0.5,0.7,1.7,1.2,2.9,1.2h206c1.2,0,2.2-0.5,2.4-1.3L292.5,284.5z"/>
		</g>
		<g>
			<g>
				<g>
					<path class="st1" d="M177.6,69.8c-0.7-0.1-1.1-0.8-1-1.5c0.3-1.3,0.5-2.6,0.6-3.9c0.1-0.7,0.7-1.1,1.3-1.1c0,0,0,0,0,0
						c0.7,0.1,1.2,0.7,1.1,1.4c-0.2,1.4-0.4,2.8-0.7,4.1c-0.1,0.6-0.7,1-1.3,1C177.7,69.8,177.7,69.8,177.6,69.8z M177.6,57.9
						c0-1.3-0.1-2.7-0.2-4c-0.1-0.7,0.4-1.3,1.1-1.4c0.7-0.1,1.3,0.4,1.4,1.1c0.1,1.4,0.2,2.8,0.2,4.2c0,0.7-0.5,1.2-1.2,1.3
						c0,0-0.1,0-0.1,0C178.1,59,177.7,58.5,177.6,57.9z M176.3,47.5c-0.3-1.3-0.7-2.6-1.1-3.8c-0.2-0.6,0.1-1.3,0.8-1.6
						c0.6-0.2,1.3,0.1,1.6,0.8c0.4,1.3,0.8,2.7,1.2,4c0.2,0.7-0.2,1.3-0.9,1.5c-0.1,0-0.3,0-0.4,0C176.9,48.4,176.4,48,176.3,47.5z
						 M172.7,37.7c-0.6-1.2-1.3-2.4-1.9-3.5c-0.4-0.6-0.2-1.3,0.4-1.7c0.6-0.4,1.3-0.2,1.7,0.4c0.7,1.2,1.4,2.4,2.1,3.7
						c0.3,0.6,0.1,1.3-0.5,1.7c-0.2,0.1-0.5,0.1-0.7,0.1C173.2,38.3,172.9,38.1,172.7,37.7z M167,29c-0.8-1-1.7-2-2.7-3
						c-0.5-0.5-0.5-1.3,0-1.7c0.5-0.5,1.3-0.5,1.7,0c1,1,1.9,2,2.8,3.1c0.4,0.5,0.4,1.3-0.2,1.7c-0.3,0.2-0.6,0.3-0.9,0.3
						C167.5,29.4,167.2,29.2,167,29z M159.4,21.7c-1-0.8-2.1-1.6-3.3-2.3c-0.6-0.4-0.7-1.1-0.4-1.7c0.4-0.6,1.1-0.7,1.7-0.4
						c1.2,0.8,2.3,1.6,3.4,2.4c0.5,0.4,0.6,1.2,0.2,1.7c-0.3,0.3-0.7,0.5-1.1,0.5C159.8,21.9,159.6,21.8,159.4,21.7z M114.4,13.6
						c-0.2-0.6,0.1-1.3,0.8-1.6c1.3-0.4,2.7-0.8,4-1.2c0.7-0.2,1.3,0.2,1.5,0.9c0.2,0.7-0.2,1.3-0.9,1.5c-1.3,0.3-2.6,0.7-3.8,1.1
						c-0.2,0.1-0.3,0.1-0.5,0.1C115,14.4,114.6,14.1,114.4,13.6z M150.5,16.3c-1.2-0.6-2.4-1.1-3.7-1.5c-0.6-0.2-1-0.9-0.7-1.6
						c0.2-0.6,0.9-1,1.6-0.7c1.3,0.5,2.6,1,3.9,1.6c0.6,0.3,0.9,1,0.6,1.6c-0.2,0.5-0.7,0.8-1.2,0.7
						C150.8,16.4,150.6,16.3,150.5,16.3z M124.8,11.1c-0.1-0.7,0.4-1.3,1.1-1.3c1.4-0.1,2.8-0.2,4.2-0.2c0.7,0,1.2,0.5,1.3,1.2
						c0,0.7-0.5,1.2-1.2,1.3c-1.3,0-2.7,0.1-4,0.2c-0.1,0-0.2,0-0.2,0C125.4,12.1,124.9,11.7,124.8,11.1z M140.6,13
						c-1.3-0.3-2.6-0.5-3.9-0.7c-0.7-0.1-1.2-0.7-1.1-1.4c0.1-0.7,0.7-1.1,1.3-1.1c0,0,0,0,0,0c1.4,0.2,2.8,0.4,4.1,0.7
						c0.7,0.1,1.1,0.8,1,1.5c-0.1,0.6-0.7,1-1.3,1C140.7,13,140.6,13,140.6,13z"/>
					<path class="st1" d="M107.5,18c0.2,0,0.5,0,0.7-0.1c0.6-0.3,1.1-0.6,1.7-0.9c0.6-0.3,0.9-1,0.5-1.7c-0.3-0.6-1-0.9-1.7-0.5
						c-0.6,0.3-1.2,0.6-1.8,0.9c-0.6,0.3-0.8,1.1-0.5,1.7C106.8,17.7,107.1,17.9,107.5,18z"/>
				</g>
				<g>
					<path class="st1" d="M84.4,47.6c0.6,0.1,1.2-0.3,1.3-0.9c0.2-0.6,0.3-1.2,0.5-1.8c0.2-0.7-0.2-1.3-0.8-1.5
						c-0.7-0.2-1.3,0.2-1.5,0.8c-0.2,0.6-0.4,1.3-0.6,1.9c-0.2,0.7,0.2,1.3,0.9,1.5C84.3,47.6,84.4,47.6,84.4,47.6z"/>
					<path class="st1" d="M123.5,107.4c-0.7-0.1-1.1-0.7-1-1.4c0.1-0.7,0.7-1.1,1.4-1c1.3,0.2,2.6,0.3,3.9,0.4
						c0.7,0,1.2,0.6,1.1,1.3c0,0.7-0.6,1.2-1.3,1.1c-0.6,0-1.1-0.1-1.7-0.1C125.1,107.6,124.3,107.5,123.5,107.4z M133,106.7
						c0-0.7,0.5-1.3,1.1-1.3c1.3-0.1,2.6-0.2,3.9-0.4c0.7-0.1,1.3,0.4,1.4,1c0.1,0.7-0.4,1.3-1,1.4c-1.4,0.2-2.7,0.4-4.1,0.5
						c-0.1,0-0.1,0-0.2,0C133.5,107.7,133,107.3,133,106.7z M116.9,105.9c-1.3-0.4-2.6-0.8-3.9-1.3c-0.6-0.2-0.9-1-0.7-1.6
						c0.2-0.6,1-0.9,1.6-0.7c1.2,0.5,2.5,0.9,3.7,1.3c0.7,0.2,1,0.9,0.8,1.5c-0.2,0.6-0.7,0.9-1.3,0.9
						C117.1,105.9,117,105.9,116.9,105.9z M143.4,105.1c-0.2-0.7,0.2-1.3,0.8-1.5c1.2-0.4,2.5-0.8,3.7-1.3c0.6-0.2,1.3,0.1,1.6,0.7
						c0.2,0.6-0.1,1.3-0.7,1.6c-1.3,0.5-2.6,1-3.9,1.3c-0.2,0-0.3,0.1-0.5,0C144,105.9,143.6,105.5,143.4,105.1z M107,101.7
						c-1.2-0.7-2.4-1.4-3.5-2.2c-0.6-0.4-0.7-1.1-0.3-1.7c0.4-0.6,1.1-0.7,1.7-0.3c1.1,0.7,2.2,1.4,3.3,2.1c0.6,0.3,0.8,1.1,0.5,1.7
						c-0.2,0.4-0.7,0.7-1.2,0.6C107.3,101.8,107.1,101.8,107,101.7z M98.1,95.4c-1-0.9-2-1.9-3-2.9c-0.5-0.5-0.4-1.3,0-1.7
						c0.5-0.5,1.3-0.4,1.7,0c0.9,0.9,1.8,1.9,2.8,2.7c0.5,0.5,0.6,1.2,0.1,1.7c-0.3,0.3-0.7,0.4-1,0.4
						C98.6,95.7,98.3,95.6,98.1,95.4z M90.9,87.4c-0.8-1.1-1.6-2.3-2.3-3.5c-0.3-0.6-0.2-1.3,0.4-1.7c0.6-0.3,1.3-0.2,1.7,0.4
						c0.7,1.1,1.4,2.2,2.2,3.3c0.4,0.6,0.3,1.3-0.3,1.7c-0.3,0.2-0.6,0.3-0.8,0.2C91.4,87.8,91.1,87.7,90.9,87.4z M85.6,77.9
						c-0.5-1.3-1-2.6-1.5-3.9c-0.2-0.6,0.1-1.3,0.8-1.6c0.6-0.2,1.3,0.1,1.6,0.8c0.4,1.2,0.9,2.5,1.4,3.7c0.3,0.6,0,1.3-0.7,1.6
						c-0.2,0.1-0.4,0.1-0.6,0.1C86.2,78.6,85.8,78.4,85.6,77.9z M82.5,67.5c-0.2-1.3-0.4-2.7-0.6-4.1c-0.1-0.7,0.4-1.3,1.1-1.3
						c0.7-0.1,1.3,0.4,1.3,1.1c0.1,1.3,0.3,2.6,0.5,3.9c0.1,0.7-0.3,1.3-1,1.4c-0.1,0-0.2,0-0.3,0C83,68.5,82.6,68.1,82.5,67.5z
						 M81.7,56.7c0-1,0.1-2,0.2-3c0-0.4,0.1-0.7,0.1-1.1c0.1-0.7,0.7-1.2,1.4-1.1c0.7,0.1,1.2,0.7,1.1,1.4c0,0.3-0.1,0.7-0.1,1
						c-0.1,1-0.2,1.9-0.2,2.9c0,0.7-0.6,1.2-1.3,1.2c0,0-0.1,0-0.1,0C82.2,58,81.7,57.4,81.7,56.7z"/>
					<path class="st1" d="M154.3,101.8c0.2,0,0.5,0,0.7-0.2c0.6-0.3,1.2-0.7,1.7-1c0.6-0.4,0.8-1.1,0.4-1.7
						c-0.4-0.6-1.1-0.8-1.7-0.4c-0.5,0.3-1.1,0.7-1.7,1c-0.6,0.3-0.8,1.1-0.5,1.7C153.5,101.5,153.9,101.8,154.3,101.8z"/>
				</g>
				<g>
					<path class="st1" d="M160,81.5c0.2-0.2,0.2-0.4,0.1-0.7l-3.1-6.3c1.7-2.8,3-5.9,3.8-9.1l6.6-2.3c0.2-0.1,0.4-0.3,0.4-0.5l0-8.4
						c0-0.2-0.2-0.5-0.4-0.5l-6.6-2.3c-0.8-3.3-2.1-6.4-3.8-9.1l3.1-6.3c0.1-0.2,0.1-0.5-0.1-0.7l-5.9-5.9c-0.2-0.2-0.4-0.2-0.7-0.1
						l-6.3,3.1c-2.8-1.7-5.9-3-9.1-3.8l-2.3-6.6c-0.1-0.2-0.3-0.4-0.5-0.4l-8.4,0c-0.2,0-0.5,0.2-0.5,0.4l-2.3,6.6
						c-3.3,0.8-6.4,2.1-9.1,3.8l-6.3-3.1c-0.2-0.1-0.5-0.1-0.7,0.1l-5.9,5.9c-0.2,0.2-0.2,0.4-0.1,0.7l3.1,6.3
						c-1.7,2.8-3,5.9-3.8,9.1l-6.6,2.3c-0.2,0.1-0.4,0.3-0.4,0.5l0,8.4c0,0.2,0.2,0.5,0.4,0.5l6.6,2.3c0.8,3.3,2.1,6.4,3.8,9.1
						l-3.1,6.3c-0.1,0.2-0.1,0.5,0.1,0.7l5.9,5.9c0.2,0.2,0.4,0.2,0.7,0.1l6.3-3.1c2.8,1.7,5.9,3,9.1,3.8l2.3,6.6
						c0.1,0.2,0.3,0.4,0.5,0.4l8.4,0c0.2,0,0.5-0.2,0.5-0.4l2.3-6.6c3.3-0.8,6.4-2.1,9.1-3.8l6.3,3.1c0.2,0.1,0.5,0.1,0.7-0.1
						L160,81.5z"/>
					<path class="st4" d="M128.8,66.5c-4.5-1.1-7.3-5.7-6.1-10.3c0.6-2.2,1.9-4,3.9-5.2c1.9-1.2,4.2-1.5,6.4-0.9
						c4.5,1.1,7.3,5.7,6.1,10.3c-1,4.1-4.9,6.8-9,6.3C129.7,66.7,129.3,66.6,128.8,66.5z M127.6,52.8c-1.5,0.9-2.5,2.3-3,4
						c-0.9,3.5,1.2,7,4.7,7.9c3.5,0.9,7-1.2,7.9-4.7c0.9-3.5-1.2-7-4.7-7.9c-0.3-0.1-0.6-0.1-0.9-0.2
						C130.2,51.7,128.8,52,127.6,52.8z"/>
					<path class="st4" d="M128.7,78.9c0.7,0.1,1.4,0.1,2.1,0.1l0,0c0.2,0,0.5,0,0.7,0c1.1,0,2.2-0.2,3.3-0.4c0,0,0,0,0,0
						c0,0,0.1,0,0.1,0c0.1,0,0.2,0,0.2-0.1c0.2,0,0.4-0.2,0.4-0.4c0-0.1,0-0.1,0-0.2c-0.1-0.3-0.3-0.4-0.6-0.4
						c-1.4,0.3-2.8,0.4-4.2,0.4c-7,0-13.2-3.7-16.7-9.2c-2-3.1-3.1-6.7-3.1-10.6c0-0.7,0-1.4,0.1-2c0.5-4.5,2.4-8.7,5.7-12
						c3.7-3.7,8.7-5.8,14-5.8c10.9,0,19.8,8.9,19.8,19.8c0,0.7,0,1.3-0.1,2c-0.3,2.9-1.2,5.7-2.7,8.2c0,0.1-0.1,0.1-0.1,0.2
						c0,0.2,0.1,0.4,0.2,0.5c0.2,0.1,0.5,0.1,0.7-0.2c1.6-2.6,2.5-5.5,2.8-8.6c0.1-0.7,0.1-1.4,0.1-2.1c0-11.5-9.3-20.8-20.8-20.8
						c-5.6,0-10.8,2.2-14.7,6.1c-3.4,3.4-5.5,7.8-6,12.6c-0.1,0.7-0.1,1.4-0.1,2.1c0,5.6,2.2,10.8,6.1,14.7
						C119.5,76.3,123.9,78.4,128.7,78.9z"/>
				</g>
			</g>
			<g>
				<g>
					<path class="st1" d="M216.3,106.3c0.3,0,0.7-0.1,0.8-0.5c0.2-0.6,0.5-1.2,0.7-1.8c0.1-0.4-0.1-0.8-0.5-1
						c-0.4-0.1-0.8,0.1-1,0.5c-0.2,0.6-0.4,1.2-0.6,1.7c-0.2,0.4,0,0.8,0.4,1C216.2,106.3,216.2,106.3,216.3,106.3z"/>
					<path class="st1" d="M217.9,100.7c-0.4-0.1-0.7-0.5-0.6-0.9c0.2-1,0.4-2.1,0.5-3.2c0-0.2,0-0.4,0.1-0.7c0-0.4,0.4-0.7,0.8-0.7
						c0.4,0,0.7,0.4,0.7,0.8c0,0.2,0,0.5-0.1,0.7c-0.1,1.1-0.3,2.2-0.5,3.3C218.8,100.5,218.4,100.8,217.9,100.7
						C218,100.7,218,100.7,217.9,100.7z M218,92.1c-0.1-1.3-0.2-2.6-0.4-3.8c-0.1-0.4,0.2-0.8,0.6-0.9c0.4-0.1,0.8,0.2,0.9,0.6
						c0.2,1.3,0.4,2.7,0.4,4c0,0.4-0.3,0.8-0.7,0.8c0,0-0.1,0-0.1,0C218.3,92.8,218,92.5,218,92.1z M216.7,84.5
						c-0.4-1.2-0.8-2.5-1.3-3.6c-0.2-0.4,0-0.8,0.4-1c0.4-0.2,0.8,0,1,0.4c0.5,1.2,1,2.5,1.4,3.8c0.1,0.4-0.1,0.8-0.5,0.9
						c-0.1,0-0.2,0-0.3,0C217,85,216.8,84.8,216.7,84.5z M213.6,77.4c-0.7-1.1-1.4-2.2-2.2-3.2c-0.3-0.3-0.2-0.8,0.1-1.1
						c0.3-0.3,0.8-0.2,1.1,0.1c0.8,1.1,1.6,2.2,2.3,3.3c0.2,0.4,0.1,0.8-0.3,1c-0.1,0.1-0.3,0.1-0.5,0.1
						C213.9,77.8,213.7,77.7,213.6,77.4z M208.9,71.3c-0.9-0.9-1.9-1.8-2.9-2.6c-0.3-0.3-0.4-0.7-0.1-1.1s0.7-0.4,1.1-0.1
						c1.1,0.8,2.1,1.7,3,2.7c0.3,0.3,0.3,0.8,0,1.1c-0.2,0.2-0.4,0.2-0.6,0.2C209.1,71.5,209,71.5,208.9,71.3z M202.8,66.6
						c-1.1-0.7-2.3-1.3-3.4-1.8c-0.4-0.2-0.6-0.6-0.4-1c0.2-0.4,0.6-0.6,1-0.4c1.2,0.5,2.4,1.2,3.6,1.9c0.4,0.2,0.5,0.7,0.3,1
						c-0.2,0.3-0.4,0.4-0.7,0.4C203,66.7,202.9,66.6,202.8,66.6z M195.7,63.5c-1.2-0.4-2.5-0.7-3.8-0.9c-0.4-0.1-0.7-0.5-0.6-0.9
						c0.1-0.4,0.5-0.7,0.9-0.6c1.3,0.2,2.7,0.5,3.9,0.9c0.4,0.1,0.6,0.5,0.5,0.9c-0.1,0.4-0.4,0.6-0.8,0.5
						C195.8,63.5,195.8,63.5,195.7,63.5z M183.5,61.5c0-0.4,0.3-0.8,0.7-0.8c1.2-0.1,2.3-0.1,3.5-0.1c0.2,0,0.4,0,0.5,0
						c0.4,0,0.7,0.4,0.7,0.8c0,0.4-0.4,0.7-0.8,0.7c-0.2,0-0.3,0-0.5,0c-1.1,0-2.3,0-3.4,0.1c0,0-0.1,0-0.1,0
						C183.8,62.2,183.5,61.9,183.5,61.5z"/>
				</g>
				<g>
					<path class="st1" d="M182.9,126.1c-1.3-0.2-2.6-0.4-3.9-0.7c-0.4-0.1-0.7-0.5-0.6-0.9c0.1-0.4,0.5-0.7,0.9-0.6
						c1.2,0.3,2.5,0.5,3.7,0.7c0.4,0,0.7,0.4,0.7,0.8C183.7,125.9,183.3,126.2,182.9,126.1C182.9,126.1,182.9,126.1,182.9,126.1z
						 M186.1,125.6c0-0.4,0.3-0.8,0.8-0.8c1.3,0,2.5-0.1,3.8-0.3c0.4-0.1,0.8,0.2,0.9,0.7c0.1,0.4-0.2,0.8-0.7,0.9
						c-1.3,0.2-2.7,0.3-4,0.3c0,0-0.1,0-0.1,0C186.4,126.3,186.1,126,186.1,125.6z M175.1,124.3c-1.2-0.5-2.5-1-3.6-1.6
						c-0.4-0.2-0.5-0.7-0.3-1c0.2-0.4,0.7-0.5,1-0.3c1.1,0.6,2.3,1.1,3.5,1.5c0.4,0.1,0.6,0.6,0.4,1c-0.1,0.3-0.5,0.5-0.8,0.5
						C175.3,124.3,175.2,124.3,175.1,124.3z M193.8,124.8c-0.1-0.4,0.1-0.8,0.6-0.9c1.2-0.3,2.4-0.7,3.6-1.2c0.4-0.2,0.8,0,1,0.4
						c0.2,0.4,0,0.8-0.4,1c-1.2,0.5-2.5,0.9-3.8,1.2c-0.1,0-0.2,0-0.3,0C194.2,125.3,193.9,125.1,193.8,124.8z M168.1,120.6
						c-1.1-0.7-2.1-1.6-3.1-2.4c-0.3-0.3-0.3-0.8-0.1-1.1c0.3-0.3,0.8-0.3,1.1-0.1c0.9,0.8,2,1.6,3,2.3c0.3,0.2,0.4,0.7,0.2,1.1
						c-0.2,0.2-0.4,0.4-0.7,0.3C168.3,120.7,168.2,120.7,168.1,120.6z M162.1,115.3c-0.9-1-1.7-2-2.5-3.1c-0.2-0.3-0.2-0.8,0.2-1.1
						c0.3-0.2,0.8-0.2,1.1,0.2c0.7,1,1.5,2,2.4,3c0.3,0.3,0.3,0.8-0.1,1.1c-0.2,0.1-0.4,0.2-0.6,0.2
						C162.4,115.6,162.2,115.5,162.1,115.3z M157.6,108.8c-0.6-1.2-1.2-2.4-1.6-3.6c-0.1-0.4,0-0.8,0.4-1c0.4-0.2,0.8,0,1,0.4
						c0.4,1.2,1,2.3,1.6,3.5c0.2,0.4,0.1,0.8-0.3,1c-0.1,0.1-0.3,0.1-0.4,0.1C157.9,109.2,157.7,109,157.6,108.8z"/>
					<path class="st1" d="M201.8,122.5c0.1,0,0.3,0,0.4-0.1c0.6-0.3,1.1-0.6,1.7-1c0.4-0.2,0.5-0.7,0.2-1c-0.2-0.4-0.7-0.5-1-0.2
						c-0.5,0.3-1.1,0.6-1.6,0.9c-0.4,0.2-0.5,0.7-0.3,1C201.3,122.3,201.5,122.5,201.8,122.5z"/>
				</g>
				<g>
					<path class="st1" d="M206.1,108.7c0.1-0.1,0.1-0.3,0.1-0.4l-2.1-4.2c1.2-1.9,2-3.9,2.5-6.1l4.4-1.5c0.2-0.1,0.3-0.2,0.3-0.4
						l0-5.6c0-0.2-0.1-0.3-0.3-0.4l-4.4-1.5c-0.5-2.2-1.4-4.3-2.5-6.1l2.1-4.2c0.1-0.1,0-0.3-0.1-0.4l-4-4c-0.1-0.1-0.3-0.1-0.4-0.1
						l-4.2,2.1c-1.9-1.2-3.9-2-6.1-2.5l-1.5-4.4c-0.1-0.2-0.2-0.3-0.4-0.3l-5.6,0c-0.2,0-0.3,0.1-0.4,0.3l-1.5,4.4
						c-2.2,0.5-4.3,1.4-6.1,2.5l-4.2-2.1c-0.1-0.1-0.3,0-0.4,0.1l-4,4c-0.1,0.1-0.1,0.3-0.1,0.4l2.1,4.2c-1.2,1.9-2,3.9-2.5,6.1
						l-4.4,1.5c-0.2,0.1-0.3,0.2-0.3,0.4l0,5.6c0,0.2,0.1,0.3,0.3,0.4l4.4,1.5c0.5,2.2,1.4,4.3,2.5,6.1l-2.1,4.2
						c-0.1,0.1,0,0.3,0.1,0.4l4,4c0.1,0.1,0.3,0.1,0.4,0.1l4.2-2.1c1.9,1.2,3.9,2,6.1,2.5l1.5,4.4c0.1,0.2,0.2,0.3,0.4,0.3l5.6,0
						c0.2,0,0.3-0.1,0.4-0.3l1.5-4.4c2.2-0.5,4.3-1.4,6.1-2.5l4.2,2.1c0.1,0.1,0.3,0,0.4-0.1L206.1,108.7z"/>
					<path class="st4" d="M185.2,98.8c-1.5-0.4-2.7-1.3-3.5-2.6c-0.8-1.3-1-2.9-0.6-4.4c0.8-3.1,3.9-4.9,7-4.2
						c3.1,0.8,4.9,3.9,4.2,7c-0.4,1.5-1.3,2.7-2.6,3.5c-1.1,0.6-2.3,0.9-3.5,0.8C185.8,98.9,185.5,98.9,185.2,98.8z M182.5,92.2
						c-0.3,1.1-0.1,2.2,0.5,3.2c0.6,1,1.5,1.7,2.6,1.9l0,0c1.1,0.3,2.2,0.1,3.2-0.5c1-0.6,1.7-1.5,1.9-2.6c0.6-2.3-0.8-4.6-3.1-5.1
						c-0.2-0.1-0.4-0.1-0.6-0.1C185,88.8,183.1,90.1,182.5,92.2z"/>
					<path class="st4" d="M185.1,107.4c0.5,0,1,0.1,1.5,0.1c1,0,2-0.1,2.9-0.3c0,0,0.1,0,0.1,0c0.3-0.1,0.6-0.3,0.6-0.7
						c0-0.1,0-0.2,0-0.2c-0.1-0.4-0.5-0.7-0.9-0.6c-0.9,0.2-1.8,0.3-2.7,0.3l0,0c-0.1,0-0.1,0-0.2,0c-2.2,0-4.2-0.6-6.1-1.6
						c-1-0.6-1.9-1.2-2.8-2.1c0,0,0,0,0,0c0,0,0,0-0.1-0.1c-2.4-2.4-3.8-5.6-3.8-9.1c0-0.4,0-0.9,0.1-1.3c0.3-2.9,1.6-5.6,3.7-7.7
						c2.4-2.4,5.6-3.8,9.1-3.8c3.4,0,6.6,1.3,9.1,3.8c2.4,2.4,3.8,5.6,3.8,9.1c0,0.4,0,0.9-0.1,1.3c-0.2,1.9-0.8,3.7-1.7,5.3
						c-0.1,0.1-0.1,0.2-0.1,0.3c0,0.3,0.1,0.6,0.4,0.7c0.4,0.2,0.8,0.1,1-0.3c1.1-1.8,1.7-3.8,2-5.9c0-0.5,0.1-1,0.1-1.5
						c0-3.8-1.5-7.4-4.2-10.1c-2.7-2.7-6.3-4.2-10.1-4.2c-3.8,0-7.4,1.5-10.1,4.2c-2.4,2.4-3.8,5.4-4.1,8.7c0,0.5-0.1,1-0.1,1.5
						C172.2,100.5,177.9,106.6,185.1,107.4z"/>
				</g>
			</g>
		</g>
	</g>
</g>
</svg>
